<?xml version="1.0" encoding="UTF-8" standalone="no"?><!DOCTYPE svg PUBLIC "-//W3C//DTD SVG 1.1//EN" "http://www.w3.org/Graphics/SVG/1.1/DTD/svg11.dtd"><svg width="100%" height="100%" viewBox="0 0 417 417" version="1.1" xmlns="http://www.w3.org/2000/svg" xmlns:xlink="http://www.w3.org/1999/xlink" xml:space="preserve" xmlns:serif="http://www.serif.com/" style="fill-rule:evenodd;clip-rule:evenodd;stroke-linejoin:round;stroke-miterlimit:2;"><path d="M208.333,15.847c-58.368,0 -137.936,0.941 -154.012,2.358c-18.177,10.867 -53.974,48.379 -54.321,59.263l0,18.011c0,22.818 21.15,42.858 40.351,42.858c23.073,0 42.318,-19.27 42.318,-42.141c0,22.871 18.533,42.141 41.606,42.141c23.073,0 41.063,-19.27 41.063,-42.141c0,22.871 19.719,42.141 42.792,42.141l0.441,0c23.073,0 42.792,-19.27 42.792,-42.141c0,22.871 17.974,42.141 41.029,42.141c23.073,0 41.64,-19.27 41.64,-42.141c0,22.871 19.211,42.141 42.284,42.141c19.184,0 40.351,-20.04 40.351,-42.858l0,-18.011c-0.347,-10.867 -36.144,-48.397 -54.321,-59.263c-56.493,-2.012 -95.644,-2.358 -154.012,-2.358Zm-43.674,133.633c-2.205,3.867 -4.944,7.412 -8.138,10.527c-8.715,8.574 -20.647,13.91 -33.807,13.91c-12.656,0.017 -24.829,-4.986 -33.875,-13.91c-3.16,-3.115 -5.544,-6.437 -7.731,-10.322c-2.188,3.885 -5.266,7.189 -8.443,10.322c-9.045,8.924 -21.218,13.928 -33.875,13.91c-1.58,0 -3.207,-0.45 -4.544,-0.923c-1.858,19.459 -2.265,27.315 -2.543,40.876l0,0.068c-0.035,6.895 -0.067,12.564 -0.102,20.438c0.365,40.842 -4.005,132.372 17.87,154.857c33.906,7.944 96.274,11.569 158.861,11.586c62.587,-0.017 124.955,-3.658 158.861,-11.62c21.875,-22.486 17.505,-114.033 17.87,-154.857c-0.035,-7.874 -0.067,-13.509 -0.102,-20.404l0,-0.068c-0.278,-13.562 -1.431,-21.417 -3.289,-40.876c-1.337,0.455 -2.998,0.889 -4.578,0.889c-12.656,0.017 -24.829,-4.952 -33.875,-13.876c-3.16,-3.115 -6.204,-6.437 -8.409,-10.322l-0.034,0c-2.205,3.885 -4.589,7.207 -7.731,10.322c-9.045,8.924 -21.218,13.91 -33.875,13.91c-13.16,0 -25.091,-5.318 -33.807,-13.91c-3.177,-3.115 -5.882,-6.659 -8.104,-10.527c-2.188,3.867 -4.894,7.412 -8.036,10.527c-9.045,8.924 -21.218,13.91 -33.875,13.91c-0.451,0 -0.939,-0.017 -1.39,-0.034c-0.451,0.017 -0.922,0.034 -1.39,0.034c-12.656,0.017 -24.829,-4.986 -33.875,-13.91c-3.16,-3.115 -5.866,-6.659 -8.036,-10.527Zm-26.347,52.633l0,0.034c12.361,0.017 23.349,0.008 36.96,14.97c10.701,-1.136 21.874,-1.725 33.061,-1.709l0.034,0c11.187,-0.016 22.36,0.573 33.061,1.709c13.611,-14.961 24.565,-14.952 36.926,-14.97l0.034,0l0,-0.034c5.833,0 29.204,-0.003 45.471,46.071l17.463,63.228c12.951,47.019 -4.146,48.155 -25.465,48.19c-31.632,-1.19 -49.133,-24.321 -49.133,-47.472c-17.517,2.887 -37.922,4.341 -58.356,4.341c-20.434,0 -40.89,-1.453 -58.39,-4.341c0,23.151 -17.501,46.282 -49.133,47.472c-21.337,-0.035 -38.451,-1.171 -25.499,-48.19l17.497,-63.228c16.267,-46.074 39.62,-46.071 45.471,-46.071Zm70.021,34.793c-0.017,0.035 -28.212,26.133 -33.264,35.408l18.446,-0.752l0,16.2c0,0.752 7.422,0.487 14.818,0.137c7.413,0.35 14.818,0.616 14.818,-0.137l0,-16.2l18.446,0.752c-5.052,-9.292 -33.264,-35.408 -33.264,-35.408Z" style="fill:#f25081;fill-rule:nonzero;"/></svg>